<mxfile host="app.diagrams.net" modified="2021-06-18T13:42:42.063Z" agent="5.0 (Windows NT 10.0; Win64; x64) AppleWebKit/537.36 (KHTML, like Gecko) Chrome/91.0.4472.77 Safari/537.36 Edg/91.0.864.41" etag="4zPvKv9B8M1C7wXR09YO" version="14.7.0" type="github">
  <diagram id="C7_nxuZXgWkULyW8MWaT" name="Page-1">
    <mxGraphModel dx="1926" dy="1857" grid="0" gridSize="10" guides="0" tooltips="1" connect="1" arrows="1" fold="1" page="1" pageScale="1" pageWidth="827" pageHeight="1169" math="0" shadow="0">
      <root>
        <mxCell id="0" />
        <mxCell id="1" parent="0" />
        <mxCell id="dwTJar3F7zg3y5vx54P7-25" value="" style="shape=folder;fontStyle=1;spacingTop=10;tabWidth=40;tabHeight=14;tabPosition=left;html=1;align=center;" vertex="1" parent="1">
          <mxGeometry x="-221" y="-100" width="1041" height="394" as="geometry" />
        </mxCell>
        <mxCell id="dwTJar3F7zg3y5vx54P7-3" value="«subsystem»&lt;br&gt;&lt;b&gt;Dormancy System&lt;br&gt;&lt;/b&gt;&lt;span style=&quot;font-weight: 700&quot;&gt;(from Domain)&lt;/span&gt;&lt;b&gt;&lt;br&gt;&lt;/b&gt;" style="html=1;dropTarget=0;" vertex="1" parent="1">
          <mxGeometry x="80" y="40" width="160" height="80" as="geometry" />
        </mxCell>
        <mxCell id="dwTJar3F7zg3y5vx54P7-4" value="" style="shape=module;jettyWidth=8;jettyHeight=4;" vertex="1" parent="dwTJar3F7zg3y5vx54P7-3">
          <mxGeometry x="1" width="20" height="20" relative="1" as="geometry">
            <mxPoint x="-27" y="7" as="offset" />
          </mxGeometry>
        </mxCell>
        <mxCell id="dwTJar3F7zg3y5vx54P7-6" value="&lt;p style=&quot;margin: 0px ; margin-top: 4px ; text-align: center&quot;&gt;&lt;i&gt;&amp;lt;&amp;lt;Interface&amp;gt;&amp;gt;&lt;/i&gt;&lt;br&gt;&lt;/p&gt;&lt;p class=&quot;MsoNormal&quot; style=&quot;text-align: center&quot;&gt;&lt;span style=&quot;color: rgb(51 , 51 , 51) ; font-size: 9.5000pt&quot;&gt;&lt;font face=&quot;Helvetica&quot;&gt;&lt;b&gt;IDormancySystem&lt;/b&gt;&lt;/font&gt;&lt;/span&gt;&lt;/p&gt;&lt;hr size=&quot;1&quot;&gt;&lt;p style=&quot;margin: 0px ; margin-left: 4px&quot;&gt;&lt;br&gt;&lt;/p&gt;&lt;hr size=&quot;1&quot;&gt;&lt;p style=&quot;margin: 0px ; margin-left: 4px&quot;&gt;&lt;br&gt;&lt;/p&gt;" style="verticalAlign=top;align=left;overflow=fill;fontSize=12;fontFamily=Helvetica;html=1;" vertex="1" parent="1">
          <mxGeometry x="30" y="160" width="190" height="110" as="geometry" />
        </mxCell>
        <mxCell id="dwTJar3F7zg3y5vx54P7-7" value="«subsystem»&lt;br&gt;&lt;b&gt;Health Examination&lt;br&gt;&lt;/b&gt;&lt;span style=&quot;font-weight: 700&quot;&gt;(from Domain)&lt;/span&gt;&lt;b&gt;&lt;br&gt;&lt;/b&gt;" style="html=1;dropTarget=0;" vertex="1" parent="1">
          <mxGeometry x="-125" y="40" width="160" height="80" as="geometry" />
        </mxCell>
        <mxCell id="dwTJar3F7zg3y5vx54P7-8" value="" style="shape=module;jettyWidth=8;jettyHeight=4;" vertex="1" parent="dwTJar3F7zg3y5vx54P7-7">
          <mxGeometry x="1" width="20" height="20" relative="1" as="geometry">
            <mxPoint x="-27" y="7" as="offset" />
          </mxGeometry>
        </mxCell>
        <mxCell id="dwTJar3F7zg3y5vx54P7-9" value="&lt;p style=&quot;margin: 0px ; margin-top: 4px ; text-align: center&quot;&gt;&lt;i&gt;&amp;lt;&amp;lt;Interface&amp;gt;&amp;gt;&lt;/i&gt;&lt;br&gt;&lt;/p&gt;&lt;p class=&quot;MsoNormal&quot; style=&quot;text-align: center&quot;&gt;&lt;b&gt;&lt;span style=&quot;color: rgb(51 , 51 , 51) ; font-size: 9.5pt&quot;&gt;IHealth&lt;/span&gt;&lt;span style=&quot;color: rgb(51 , 51 , 51) ; font-size: 9.5pt&quot;&gt;Examination&lt;/span&gt;&lt;/b&gt;&lt;/p&gt;&lt;hr size=&quot;1&quot;&gt;&lt;p style=&quot;margin: 0px ; margin-left: 4px&quot;&gt;&lt;br&gt;&lt;/p&gt;&lt;hr size=&quot;1&quot;&gt;&lt;p style=&quot;margin: 0px ; margin-left: 4px&quot;&gt;&lt;br&gt;&lt;/p&gt;" style="verticalAlign=top;align=left;overflow=fill;fontSize=12;fontFamily=Helvetica;html=1;" vertex="1" parent="1">
          <mxGeometry x="-200" y="160" width="190" height="110" as="geometry" />
        </mxCell>
        <mxCell id="dwTJar3F7zg3y5vx54P7-10" value="«subsystem»&lt;br&gt;&lt;b&gt;Election System&lt;br&gt;&lt;/b&gt;&lt;span style=&quot;font-weight: 700&quot;&gt;(from Domain)&lt;/span&gt;&lt;b&gt;&lt;br&gt;&lt;/b&gt;" style="html=1;dropTarget=0;" vertex="1" parent="1">
          <mxGeometry x="290" y="40" width="160" height="80" as="geometry" />
        </mxCell>
        <mxCell id="dwTJar3F7zg3y5vx54P7-11" value="" style="shape=module;jettyWidth=8;jettyHeight=4;" vertex="1" parent="dwTJar3F7zg3y5vx54P7-10">
          <mxGeometry x="1" width="20" height="20" relative="1" as="geometry">
            <mxPoint x="-27" y="7" as="offset" />
          </mxGeometry>
        </mxCell>
        <mxCell id="dwTJar3F7zg3y5vx54P7-13" value="«subsystem»&lt;br&gt;&lt;p class=&quot;MsoNormal&quot;&gt;&lt;span style=&quot;color: rgb(51 , 51 , 51) ; font-size: 9.5pt&quot;&gt;&lt;b&gt;Exceptional Circumstances&amp;nbsp;&lt;br&gt;&lt;/b&gt;&lt;/span&gt;&lt;b style=&quot;color: rgb(51 , 51 , 51) ; font-size: 9.5pt&quot;&gt;Management system&lt;br&gt;&lt;/b&gt;&lt;span style=&quot;font-weight: 700&quot;&gt;(from Domain)&lt;/span&gt;&lt;b style=&quot;color: rgb(51 , 51 , 51) ; font-size: 9.5pt&quot;&gt;&lt;br&gt;&lt;/b&gt;&lt;/p&gt;" style="html=1;dropTarget=0;" vertex="1" parent="1">
          <mxGeometry x="520" y="40" width="215" height="80" as="geometry" />
        </mxCell>
        <mxCell id="dwTJar3F7zg3y5vx54P7-14" value="" style="shape=module;jettyWidth=8;jettyHeight=4;" vertex="1" parent="dwTJar3F7zg3y5vx54P7-13">
          <mxGeometry x="1" width="20" height="20" relative="1" as="geometry">
            <mxPoint x="-27" y="7" as="offset" />
          </mxGeometry>
        </mxCell>
        <mxCell id="dwTJar3F7zg3y5vx54P7-16" value="" style="endArrow=block;dashed=1;endFill=0;endSize=12;html=1;entryX=0.5;entryY=0;entryDx=0;entryDy=0;exitX=0.152;exitY=0.999;exitDx=0;exitDy=0;exitPerimeter=0;" edge="1" parent="1" source="dwTJar3F7zg3y5vx54P7-7" target="dwTJar3F7zg3y5vx54P7-9">
          <mxGeometry width="160" relative="1" as="geometry">
            <mxPoint x="-50" y="140" as="sourcePoint" />
            <mxPoint x="110" y="140" as="targetPoint" />
          </mxGeometry>
        </mxCell>
        <mxCell id="dwTJar3F7zg3y5vx54P7-17" value="" style="endArrow=block;dashed=1;endFill=0;endSize=12;html=1;entryX=0.5;entryY=0;entryDx=0;entryDy=0;exitX=0.5;exitY=1;exitDx=0;exitDy=0;" edge="1" parent="1" target="dwTJar3F7zg3y5vx54P7-6">
          <mxGeometry width="160" relative="1" as="geometry">
            <mxPoint x="159.5" y="120" as="sourcePoint" />
            <mxPoint x="159.5" y="180" as="targetPoint" />
          </mxGeometry>
        </mxCell>
        <mxCell id="dwTJar3F7zg3y5vx54P7-18" value="" style="endArrow=block;dashed=1;endFill=0;endSize=12;html=1;entryX=0.5;entryY=0;entryDx=0;entryDy=0;exitX=0.5;exitY=1;exitDx=0;exitDy=0;" edge="1" parent="1" target="dwTJar3F7zg3y5vx54P7-20">
          <mxGeometry width="160" relative="1" as="geometry">
            <mxPoint x="627" y="120" as="sourcePoint" />
            <mxPoint x="627" y="180" as="targetPoint" />
          </mxGeometry>
        </mxCell>
        <mxCell id="dwTJar3F7zg3y5vx54P7-19" value="" style="endArrow=block;dashed=1;endFill=0;endSize=12;html=1;entryX=0.5;entryY=0;entryDx=0;entryDy=0;exitX=0.5;exitY=1;exitDx=0;exitDy=0;" edge="1" parent="1" target="dwTJar3F7zg3y5vx54P7-21">
          <mxGeometry width="160" relative="1" as="geometry">
            <mxPoint x="369.5" y="120" as="sourcePoint" />
            <mxPoint x="369.5" y="180" as="targetPoint" />
          </mxGeometry>
        </mxCell>
        <mxCell id="dwTJar3F7zg3y5vx54P7-20" value="&lt;p style=&quot;margin: 0px ; margin-top: 4px ; text-align: center&quot;&gt;&lt;i&gt;&amp;lt;&amp;lt;Interface&amp;gt;&amp;gt;&lt;/i&gt;&lt;br&gt;&lt;/p&gt;&lt;p class=&quot;MsoNormal&quot; style=&quot;text-align: center&quot;&gt;&lt;b style=&quot;color: rgb(51 , 51 , 51) ; font-size: 12.6667px&quot;&gt;IExceptionalCircumstancesManagementSystem&lt;/b&gt;&lt;br&gt;&lt;/p&gt;&lt;hr size=&quot;1&quot;&gt;&lt;p style=&quot;margin: 0px ; margin-left: 4px&quot;&gt;&lt;br&gt;&lt;/p&gt;&lt;hr size=&quot;1&quot;&gt;&lt;p style=&quot;margin: 0px ; margin-left: 4px&quot;&gt;&lt;br&gt;&lt;/p&gt;" style="verticalAlign=top;align=left;overflow=fill;fontSize=12;fontFamily=Helvetica;html=1;" vertex="1" parent="1">
          <mxGeometry x="500" y="160" width="310" height="110" as="geometry" />
        </mxCell>
        <mxCell id="dwTJar3F7zg3y5vx54P7-21" value="&lt;p style=&quot;margin: 0px ; margin-top: 4px ; text-align: center&quot;&gt;&lt;i&gt;&amp;lt;&amp;lt;Interface&amp;gt;&amp;gt;&lt;/i&gt;&lt;br&gt;&lt;/p&gt;&lt;p class=&quot;MsoNormal&quot; style=&quot;text-align: center&quot;&gt;&lt;b style=&quot;color: rgb(51 , 51 , 51) ; font-size: 12.6667px&quot;&gt;IElectionSystem&lt;/b&gt;&lt;br&gt;&lt;/p&gt;&lt;hr size=&quot;1&quot;&gt;&lt;p style=&quot;margin: 0px ; margin-left: 4px&quot;&gt;&lt;br&gt;&lt;/p&gt;&lt;hr size=&quot;1&quot;&gt;&lt;p style=&quot;margin: 0px ; margin-left: 4px&quot;&gt;&lt;br&gt;&lt;/p&gt;" style="verticalAlign=top;align=left;overflow=fill;fontSize=12;fontFamily=Helvetica;html=1;" vertex="1" parent="1">
          <mxGeometry x="270" y="160" width="190" height="110" as="geometry" />
        </mxCell>
        <mxCell id="dwTJar3F7zg3y5vx54P7-24" value="spaceshipArtifacts" style="shape=folder;fontStyle=1;spacingTop=10;tabWidth=40;tabHeight=14;tabPosition=left;html=1;" vertex="1" parent="1">
          <mxGeometry x="244" y="-220" width="111" height="70" as="geometry" />
        </mxCell>
        <mxCell id="dwTJar3F7zg3y5vx54P7-26" value="Domain" style="text;strokeColor=none;fillColor=none;align=left;verticalAlign=top;spacingLeft=4;spacingRight=4;overflow=hidden;rotatable=0;points=[[0,0.5],[1,0.5]];portConstraint=eastwest;" vertex="1" parent="1">
          <mxGeometry x="240" width="100" height="26" as="geometry" />
        </mxCell>
        <mxCell id="dwTJar3F7zg3y5vx54P7-34" value="&lt;p style=&quot;margin: 4px 0px 0px&quot;&gt;&lt;i style=&quot;font-weight: normal&quot;&gt;&amp;lt;&amp;lt;Interface&amp;gt;&amp;gt;&lt;br&gt;&lt;/i&gt;&lt;span style=&quot;color: rgb(51 , 51 , 51) ; font-size: 9.5pt&quot;&gt;ExternalSystemInterfaces&lt;/span&gt;&lt;/p&gt;" style="shape=folder;fontStyle=1;spacingTop=10;tabWidth=40;tabHeight=14;tabPosition=left;html=1;" vertex="1" parent="1">
          <mxGeometry x="-20" y="-80" width="660" height="50" as="geometry" />
        </mxCell>
        <mxCell id="dwTJar3F7zg3y5vx54P7-35" value="" style="endArrow=block;dashed=1;endFill=0;endSize=12;html=1;entryX=0.188;entryY=1;entryDx=0;entryDy=0;exitX=0.75;exitY=0;exitDx=0;exitDy=0;entryPerimeter=0;" edge="1" parent="1" source="dwTJar3F7zg3y5vx54P7-7" target="dwTJar3F7zg3y5vx54P7-34">
          <mxGeometry width="160" relative="1" as="geometry">
            <mxPoint x="24.5" y="-50" as="sourcePoint" />
            <mxPoint x="-10" y="-10" as="targetPoint" />
          </mxGeometry>
        </mxCell>
        <mxCell id="dwTJar3F7zg3y5vx54P7-36" value="" style="endArrow=block;dashed=1;endFill=0;endSize=12;html=1;entryX=0.361;entryY=1.025;entryDx=0;entryDy=0;exitX=0.5;exitY=1;exitDx=0;exitDy=0;entryPerimeter=0;" edge="1" parent="1" target="dwTJar3F7zg3y5vx54P7-34">
          <mxGeometry width="160" relative="1" as="geometry">
            <mxPoint x="184.5" y="40" as="sourcePoint" />
            <mxPoint x="150" y="80" as="targetPoint" />
          </mxGeometry>
        </mxCell>
        <mxCell id="dwTJar3F7zg3y5vx54P7-37" value="" style="endArrow=block;dashed=1;endFill=0;endSize=12;html=1;entryX=0.614;entryY=1.006;entryDx=0;entryDy=0;exitX=0.5;exitY=0;exitDx=0;exitDy=0;entryPerimeter=0;" edge="1" parent="1" source="dwTJar3F7zg3y5vx54P7-10" target="dwTJar3F7zg3y5vx54P7-34">
          <mxGeometry width="160" relative="1" as="geometry">
            <mxPoint x="348.75" y="40" as="sourcePoint" />
            <mxPoint x="314.25" y="80" as="targetPoint" />
          </mxGeometry>
        </mxCell>
        <mxCell id="dwTJar3F7zg3y5vx54P7-38" value="" style="endArrow=block;dashed=1;endFill=0;endSize=12;html=1;entryX=0.833;entryY=1;entryDx=0;entryDy=0;exitX=0.5;exitY=1;exitDx=0;exitDy=0;entryPerimeter=0;" edge="1" parent="1" target="dwTJar3F7zg3y5vx54P7-34">
          <mxGeometry width="160" relative="1" as="geometry">
            <mxPoint x="570" y="40" as="sourcePoint" />
            <mxPoint x="535.5" y="80" as="targetPoint" />
          </mxGeometry>
        </mxCell>
        <mxCell id="dwTJar3F7zg3y5vx54P7-40" value="" style="endArrow=block;dashed=1;endFill=0;endSize=12;html=1;entryX=0.361;entryY=1.025;entryDx=0;entryDy=0;exitX=0.491;exitY=0.2;exitDx=0;exitDy=0;entryPerimeter=0;exitPerimeter=0;" edge="1" parent="1" source="dwTJar3F7zg3y5vx54P7-34">
          <mxGeometry width="160" relative="1" as="geometry">
            <mxPoint x="270" y="-81.25" as="sourcePoint" />
            <mxPoint x="303.75999999999976" y="-150" as="targetPoint" />
          </mxGeometry>
        </mxCell>
        <mxCell id="dwTJar3F7zg3y5vx54P7-41" value="" style="endArrow=block;dashed=1;endFill=0;endSize=12;html=1;entryX=0;entryY=0;entryDx=0;entryDy=42;exitX=0.75;exitY=0;exitDx=0;exitDy=0;entryPerimeter=0;" edge="1" parent="1" target="dwTJar3F7zg3y5vx54P7-24">
          <mxGeometry width="160" relative="1" as="geometry">
            <mxPoint x="-74.08" y="40" as="sourcePoint" />
            <mxPoint x="34.99999999999993" y="-30" as="targetPoint" />
          </mxGeometry>
        </mxCell>
        <mxCell id="dwTJar3F7zg3y5vx54P7-42" value="" style="endArrow=block;dashed=1;endFill=0;endSize=12;html=1;entryX=0.074;entryY=1.024;entryDx=0;entryDy=0;exitX=0.5;exitY=1;exitDx=0;exitDy=0;entryPerimeter=0;" edge="1" parent="1" target="dwTJar3F7zg3y5vx54P7-24">
          <mxGeometry width="160" relative="1" as="geometry">
            <mxPoint x="150" y="40" as="sourcePoint" />
            <mxPoint x="183.75999999999976" y="-28.75" as="targetPoint" />
          </mxGeometry>
        </mxCell>
        <mxCell id="dwTJar3F7zg3y5vx54P7-43" value="" style="endArrow=block;dashed=1;endFill=0;endSize=12;html=1;entryX=0;entryY=0;entryDx=111;entryDy=70;exitX=0.5;exitY=0;exitDx=0;exitDy=0;entryPerimeter=0;" edge="1" parent="1" target="dwTJar3F7zg3y5vx54P7-24">
          <mxGeometry width="160" relative="1" as="geometry">
            <mxPoint x="398.00000000000045" y="40" as="sourcePoint" />
            <mxPoint x="413.2399999999998" y="-29.699999999999818" as="targetPoint" />
          </mxGeometry>
        </mxCell>
        <mxCell id="dwTJar3F7zg3y5vx54P7-44" value="" style="endArrow=block;dashed=1;endFill=0;endSize=12;html=1;entryX=0;entryY=0;entryDx=111;entryDy=42;exitX=0.5;exitY=1;exitDx=0;exitDy=0;entryPerimeter=0;" edge="1" parent="1" target="dwTJar3F7zg3y5vx54P7-24">
          <mxGeometry width="160" relative="1" as="geometry">
            <mxPoint x="670.2199999999996" y="40" as="sourcePoint" />
            <mxPoint x="629.9999999999998" y="-30" as="targetPoint" />
          </mxGeometry>
        </mxCell>
      </root>
    </mxGraphModel>
  </diagram>
</mxfile>
